<svg xmlns="http://www.w3.org/2000/svg" viewBox="0 0 32 32" width="32" height="32">
  <defs>
    <linearGradient id="bg" x1="0" y1="0" x2="1" y2="1">
      <stop offset="0%" stop-color="#0D1B2A"/>
      <stop offset="100%" stop-color="#162336"/>
    </linearGradient>
  </defs>
  <rect width="32" height="32" rx="6" fill="url(#bg)"/>
  <!-- Car silhouette (simplified side view) -->
  <path d="M6 20.5h20v1.5c0 .6-.4 1-1 1H7c-.6 0-1-.4-1-1v-1.5z" fill="#C94B1F"/>
  <path d="M8.5 20.5L10.5 16h11l2 4.5H8.5z" fill="#C94B1F"/>
  <path d="M11 16l1-3h8l1 3H11z" fill="#E05A2B"/>
  <!-- Wheels -->
  <circle cx="10.5" cy="22" r="1.8" fill="#0D1B2A"/>
  <circle cx="10.5" cy="22" r="0.8" fill="#64748B"/>
  <circle cx="21.5" cy="22" r="1.8" fill="#0D1B2A"/>
  <circle cx="21.5" cy="22" r="0.8" fill="#64748B"/>
  <!-- Chat bubble (SMS signal) -->
  <rect x="18" y="5" width="10" height="7" rx="2" fill="#FFFFFF"/>
  <polygon points="20,12 22,12 20,14.5" fill="#FFFFFF"/>
  <!-- Dots inside bubble -->
  <circle cx="21" cy="8.5" r="0.9" fill="#C94B1F"/>
  <circle cx="23" cy="8.5" r="0.9" fill="#C94B1F"/>
  <circle cx="25" cy="8.5" r="0.9" fill="#C94B1F"/>
</svg>
