<svg xmlns="http://www.w3.org/2000/svg" viewBox="0 0 64 64" width="64" height="64">
  <defs>
    <linearGradient id="bg" x1="0" y1="0" x2="1" y2="1">
      <stop offset="0%" stop-color="#1E3A5F"/>
      <stop offset="100%" stop-color="#162336"/>
    </linearGradient>
  </defs>
  <rect width="56" height="56" x="4" y="4" rx="10" fill="url(#bg)"/>
  <path d="M14 40h36v2.5c0 1-.7 1.8-1.8 1.8H15.8c-1 0-1.8-.8-1.8-1.8V40z" fill="#E05A2B"/>
  <path d="M18.5 40L22 32h18l3.5 8H18.5z" fill="#E05A2B"/>
  <path d="M23 32l1.8-5.5h12.4L39 32H23z" fill="#F07040"/>
  <circle cx="22" cy="43" r="3" fill="#0D1B2A"/>
  <circle cx="22" cy="43" r="1.4" fill="#94A3B8"/>
  <circle cx="40" cy="43" r="3" fill="#0D1B2A"/>
  <circle cx="40" cy="43" r="1.4" fill="#94A3B8"/>
  <rect x="34" y="12" width="17" height="12" rx="3.5" fill="#FFFFFF"/>
  <polygon points="37,24 40,24 37,28" fill="#FFFFFF"/>
  <circle cx="39" cy="18" r="1.5" fill="#E05A2B"/>
  <circle cx="42.5" cy="18" r="1.5" fill="#E05A2B"/>
  <circle cx="46" cy="18" r="1.5" fill="#E05A2B"/>
</svg>
