<svg xmlns="http://www.w3.org/2000/svg" viewBox="0 0 200 40" width="200" height="40">
  <defs>
    <linearGradient id="nbg" x1="0" y1="0" x2="1" y2="1">
      <stop offset="0%" stop-color="#0D1B2A"/>
      <stop offset="100%" stop-color="#162336"/>
    </linearGradient>
  </defs>
  <!-- Icon (scaled to 36x36) -->
  <rect width="36" height="36" x="2" y="2" rx="7" fill="url(#nbg)"/>
  <!-- Car body -->
  <path d="M8 27h24v1.6c0 .65-.45 1.15-1.15 1.15H9.15C8.45 29.75 8 29.25 8 28.6V27z" fill="#C94B1F"/>
  <path d="M11 27l2.3-5.2h13.4L29 27H11z" fill="#C94B1F"/>
  <path d="M14 21.8l1.2-3.6h9.6L26 21.8H14z" fill="#E05A2B"/>
  <!-- Wheels -->
  <circle cx="13.5" cy="29" r="2" fill="#0D1B2A"/>
  <circle cx="13.5" cy="29" r="0.9" fill="#64748B"/>
  <circle cx="26.5" cy="29" r="2" fill="#0D1B2A"/>
  <circle cx="26.5" cy="29" r="0.9" fill="#64748B"/>
  <!-- Chat bubble -->
  <rect x="22" y="7" width="12" height="8.5" rx="2.5" fill="#FFFFFF"/>
  <polygon points="24,15.5 26,15.5 24,18.5" fill="#FFFFFF"/>
  <circle cx="25.5" cy="11.2" r="1" fill="#C94B1F"/>
  <circle cx="28" cy="11.2" r="1" fill="#C94B1F"/>
  <circle cx="30.5" cy="11.2" r="1" fill="#C94B1F"/>
  <!-- Text -->
  <text x="46" y="19" font-family="'Barlow Condensed','Segoe UI','Helvetica Neue',Arial,sans-serif" font-size="18" font-weight="700" fill="#0D1B2A" letter-spacing="-0.3">AutoShop</text>
  <text x="46" y="33" font-family="'Barlow Condensed','Segoe UI','Helvetica Neue',Arial,sans-serif" font-size="11" font-weight="600" fill="#C94B1F" letter-spacing="2.5">AI</text>
  <text x="66" y="33" font-family="'Barlow','Segoe UI','Helvetica Neue',Arial,sans-serif" font-size="10" font-weight="500" fill="#94A3B8" letter-spacing="0.3">SMS Assistant</text>
</svg>
